<svg xmlns="http://www.w3.org/2000/svg" xmlns:xlink="http://www.w3.org/1999/xlink" viewBox="0 0 142 142"><defs><path id="b" d="M0 5.539C0 2.479 2.456 0 5.48 0h97.488c3.027 0 5.48 2.478 5.48 5.539v98.343c0 3.06-2.455 5.539-5.48 5.539H5.48c-3.026 0-5.48-2.478-5.48-5.539V5.539zm117.74 13.216c-1.2.928-2.174 2.922-2.174 4.453v63.005c0 1.531.972 3.524 2.174 4.453l22.086 17.074c1.2.928 2.174.443 2.174-1.092V2.773c0-1.532-.972-2.021-2.174-1.092L117.74 18.755z"/><path id="f" d="m0 109.421 108.449-83.775v83.775z"/><path id="h" d="M0 83.433 108.449 0v83.433z"/><linearGradient id="a" x1="-7.466%" x2="38.594%" y1="-14.125%" y2="61.655%"><stop offset="0%" stop-color="#1EE2E1"/><stop offset="100%" stop-color="#006FD2"/></linearGradient><linearGradient id="c" x1="50%" x2="152.96%" y1="-18.134%" y2="100%"><stop offset="0%" stop-color="#FFF" stop-opacity=".404"/><stop offset="100%" stop-color="#FFF" stop-opacity="0"/></linearGradient><filter id="e" width="140.6%" height="152.5%" x="-27.7%" y="-25.1%" filterUnits="objectBoundingBox"><feOffset dx="-8" dy="1" in="SourceAlpha" result="shadowOffsetOuter1"/><feGaussianBlur in="shadowOffsetOuter1" result="shadowBlurOuter1" stdDeviation="6"/><feColorMatrix in="shadowBlurOuter1" values="0 0 0 0 0 0 0 0 0 0 0 0 0 0 0 0 0 0 0.211390399 0"/></filter><filter id="g" width="140.6%" height="152.7%" x="-27.7%" y="-25.2%" filterUnits="objectBoundingBox"><feOffset dx="-8" dy="1" in="SourceAlpha" result="shadowOffsetOuter1"/><feGaussianBlur in="shadowOffsetOuter1" result="shadowBlurOuter1" stdDeviation="6"/><feColorMatrix in="shadowBlurOuter1" values="0 0 0 0 0 0 0 0 0 0 0 0 0 0 0 0 0 0 0.211390399 0"/></filter></defs><g fill="none" fill-rule="evenodd"><path fill="url(#a)" d="M0 5.518C0 2.47 2.456 0 5.48 0h97.488c3.027 0 5.48 2.468 5.48 5.518v97.964c0 3.048-2.455 5.518-5.48 5.518H5.48C2.454 109 0 106.532 0 103.482V5.518zm117.74 13.165c-1.2.925-2.174 2.91-2.174 4.436v62.762c0 1.526.972 3.51 2.174 4.436l22.086 17.008c1.2.925 2.174.442 2.174-1.088V2.763c0-1.526-.972-2.014-2.174-1.088L117.74 18.683z" transform="translate(0 16)"/><g transform="translate(0 16)"><mask id="d" fill="#fff"><use xlink:href="#b"/></mask><use fill="url(#a)" xlink:href="#b"/><path fill="url(#c)" d="M117.74 18.755c-1.2.928-2.174 2.922-2.174 4.453v63.005c0 1.531.972 3.524 2.174 4.453l22.086 17.074c1.2.928 2.174.443 2.174-1.092V2.773c0-1.532-.972-2.021-2.174-1.092L117.74 18.755z" mask="url(#d)"/><g mask="url(#d)" opacity=".265"><use fill="#000" filter="url(#e)" xlink:href="#f"/><use fill="#FFF" xlink:href="#f"/></g><g mask="url(#d)" opacity=".199" transform="matrix(1 0 0 -1 0 83.433)"><use fill="#000" filter="url(#g)" xlink:href="#h"/><use fill="#D8D8D8" xlink:href="#h"/></g></g><path fill="#FFF" d="m74.808 70.096-.707-.506.707-.606c.505-.404 1.01-.91 1.414-1.314 4.142-4.043 6.263-8.794 6.263-14.05 0-3.74-1.01-7.379-2.93-10.613-1.919-3.235-4.545-5.762-7.777-7.48C68.545 33.91 64.404 33 59.455 33H24v75h36.06c5.354 0 9.698-.91 13.03-2.73 3.334-1.819 5.96-4.345 7.98-7.681C82.99 94.354 84 90.817 84 86.976c-.101-7.177-3.131-12.938-9.192-16.88zM36.121 43.512h23.435c3.333 0 5.96 1.01 8.181 2.931 2.122 1.92 3.233 4.347 3.233 7.48 0 2.931-1.01 5.357-3.132 7.379-2.12 1.92-4.747 2.931-8.08 2.931H36.12v-20.72zm32.727 50.236c-2.222 2.022-5.252 2.931-9.09 2.931H36.12V74.846h23.84c2.626 0 4.747.405 6.363 1.213 3.94 1.92 5.859 5.155 5.859 9.603 0 3.436-1.111 6.064-3.334 8.086z"/></g></svg>