<svg xmlns="http://www.w3.org/2000/svg" viewBox="0 0 100 100"><path fill="#00aff0" d="M2.8 50A47.2 47.2 0 0 0 50 97.3a43.3 43.3 0 0 0 8.5-.8 28 28 0 0 0 38-38 50.2 50.2 0 0 0 .8-8.5A47.2 47.2 0 0 0 50.1 2.7a43.3 43.3 0 0 0-8.5.8A28.7 28.7 0 0 0 28 0 28 28 0 0 0 3.5 41.5a50.2 50.2 0 0 0-.7 8.5"/><path fill="#fff" d="M50.2 80C33.5 80 26 71.7 26 65.5a5.3 5.3 0 0 1 5.6-5.5c7.2 0 5.4 10.3 18.7 10.3 6.9 0 10.6-3.7 10.6-7.6 0-2.3-1.1-4.9-5.7-6l-14.8-3.6c-12-3-14.2-9.5-14.2-15.7 0-12.7 12-17.5 23.1-17.5s22.5 5.7 22.5 13.3c0 3.3-2.8 5.2-6.1 5.2-6.1 0-5-8.5-17.3-8.5-6.1 0-9.5 2.8-9.5 6.8S43.8 42 48 43l11 2.4c12.1 2.7 15.2 9.8 15.2 16.5-.1 10.4-8.1 18.1-24 18.1"/></svg>