<svg xmlns="http://www.w3.org/2000/svg" viewBox="0 0 100 100"><defs><linearGradient id="a" x1="15.849" x2="84.151" y1="-1425.138" y2="-1306.836" gradientTransform="matrix(1 0 0 -1 0 -1315.987)" gradientUnits="userSpaceOnUse"><stop offset="0" stop-color="#0845bf"/><stop offset=".6" stop-color="#0b5cff"/><stop offset="1" stop-color="#4f90ee"/></linearGradient></defs><path d="M0 0h100v100H0V0Z" style="fill:url(#a)"/><path d="M29.862 57.657H17.46c-.87 0-1.648-.52-1.98-1.324s-.151-1.72.464-2.336l8.591-8.591h-6.157a3.063 3.063 0 0 1-3.063-3.063h11.438c.87 0 1.648.52 1.981 1.323.333.804.15 1.721-.464 2.337l-8.592 8.591H26.8a3.063 3.063 0 0 1 3.063 3.063Zm54.824-9.571a5.98 5.98 0 0 0-5.972-5.973 5.958 5.958 0 0 0-4.441 1.984 5.958 5.958 0 0 0-4.441-1.984 5.98 5.98 0 0 0-5.973 5.973v9.571a3.063 3.063 0 0 0 3.063-3.063v-6.508c0-1.605 1.305-2.91 2.91-2.91s2.91 1.305 2.91 2.91v6.508a3.063 3.063 0 0 0 3.062 3.063v-9.571c0-1.605 1.305-2.91 2.91-2.91s2.91 1.305 2.91 2.91v6.508a3.063 3.063 0 0 0 3.062 3.063v-9.571ZM62.328 50a7.887 7.887 0 1 1-15.774 0 7.887 7.887 0 0 1 15.774 0Zm-3.063 0a4.824 4.824 0 1 0-9.648 0 4.824 4.824 0 0 0 9.648 0Zm-13.936 0a7.887 7.887 0 1 1-15.773 0 7.887 7.887 0 0 1 15.773 0Zm-3.063 0a4.824 4.824 0 1 0-9.647 0 4.824 4.824 0 0 0 9.647 0Z" style="fill:#fff"/></svg>