<svg xmlns="http://www.w3.org/2000/svg" xmlns:xlink="http://www.w3.org/1999/xlink" viewBox="0 0 500 500"><defs><path id="a" d="M0 0h1440v1417H0z"/><mask id="b" fill="#fff"><use fill-rule="evenodd" xlink:href="#a"/></mask></defs><g fill="none" fill-rule="evenodd"><path fill="#fff" d="M0 0h500v500H0z"/><use fill="#15141b" xlink:href="#a"/><g fill="#fff" mask="url(#b)"><path d="M265.47 102.067c-.15-9.978-1.36-23.852-6.07-35.846 15.157 2.83 22.617 19.744 25.764 29.827-5.833 1.785-12.48 3.812-19.695 6.019m-79.337 132.338c1.35 21.085 57.587 25.689 60.745 75.08 2.483 38.856-20.894 65.431-54.58 67.531-40.428 2.514-62.68-21.01-62.68-21.01l8.562-35.951s22.403 16.671 40.332 15.551c11.71-.727 15.895-10.124 15.478-16.776-1.755-27.506-47.546-25.89-50.447-71.08-2.43-38.031 22.885-76.57 78.759-80.053 21.525-1.34 32.55 4.076 32.55 4.076l-12.78 47.143s-14.247-6.4-31.149-5.353c-24.779 1.573-25.047 16.987-24.79 20.842m38.855-180.273c4.689-.095 8.638.918 12.01 3.104-5.395 2.766-10.618 6.736-15.51 11.91-12.684 13.42-22.403 34.261-26.278 54.365-12.095 3.695-23.923 7.305-34.798 10.632 6.861-31.644 33.75-79.135 64.576-80.011m27.21 51.989a86232.83 86232.83 0 0 1-42.377 12.945c4.1-15.468 11.86-30.873 21.397-40.967 3.543-3.759 8.51-7.94 14.386-10.337 5.534 11.361 6.722 27.473 6.593 38.359m58.015-17.728c-.032.011-4.603 1.405-12.33 3.77-1.285-4.13-3.19-9.208-5.898-14.308-8.735-16.438-21.537-25.149-36.993-25.171h-.053c-1.07 0-2.141.095-3.212.191-.45-.54-.91-1.077-1.402-1.584-6.732-7.105-15.381-10.57-25.721-10.273-19.973.57-39.861 14.791-55.981 40.059-11.357 17.779-19.973 40.121-22.425 57.405-22.927 7-38.972 11.91-39.315 12.016-11.57 3.58-11.935 3.938-13.454 14.697C92.28 173.335 62 404.342 62 404.342l251.262 42.867V87.886c-1.242.084-2.355.306-3.05.507m11.356 357.845L425.8 420.676s-44.88-299.309-45.159-301.368c-.289-2.048-2.109-3.189-3.607-3.315-1.499-.127-30.849-.56-30.849-.56s-17.896-17.136-24.618-23.63z"/></g></g></svg>