<svg xmlns="http://www.w3.org/2000/svg" xml:space="preserve" id="Layer_1" x="0" y="0" style="enable-background:new 0 0 306 306" version="1.1" viewBox="0 0 306 306"><style>.st2{fill:#fff}</style><path d="M0 0h306v306H0z" style="fill:#004cff"/><circle cx="153.5" cy="153.5" r="152.5" style="fill:none;stroke:#004cff"/><path d="m204.3 152.6-101.8 67.6c-4.5 3-7.1 8-7.1 13.4v16.9l123.4-81c5.6-3.9 8.9-10.1 9-16.9 0-6.8-3.4-13.2-9-16.9L95.4 55.5v15.7c-.1 5.4 2.6 10.4 7.1 13.4l101.8 68z" class="st2"/><path d="M142.9 158.1c5.5 3.5 12.6 3.5 18.1 0l8.7-5.9-64.4-43.6c-2.9-1.9-6.8-1.1-8.8 1.8-.7 1-1 2.1-1.1 3.3v13l33.4 22.4 14.1 9z" class="st2"/></svg>