<svg xmlns="http://www.w3.org/2000/svg" viewBox="0 0 166.667 166.667"><defs><clipPath id="a" clipPathUnits="userSpaceOnUse"><path d="M0 125h125V0H0Z"/></clipPath><clipPath id="b" clipPathUnits="userSpaceOnUse"><path d="M0 0h125v125H0Z"/></clipPath></defs><g clip-path="url(#a)" transform="matrix(1.33333 0 0 -1.33333 0 166.667)"><path d="M0 0h119.668c1.467 0 2.666-1.2 2.666-2.666v-119.668a2.674 2.674 0 0 0-2.666-2.666H0a2.674 2.674 0 0 0-2.666 2.666V-2.666C-2.666-1.2-1.466 0 0 0" style="fill:#d92626;fill-opacity:1;fill-rule:nonzero;stroke:none" transform="translate(2.666 125)"/></g><g clip-path="url(#b)" transform="matrix(1.33333 0 0 -1.33333 0 166.667)"><path d="M0 0c-1.335 1.717-3.815 2.003-5.627.858-6.199-3.815-13.543-4.959-20.696-3.338-7.248 1.717-13.352 6.104-17.262 12.303-3.91 6.295-5.15 13.734-3.434 20.887 1.622 7.153 6.009 13.257 12.208 17.167.668.381 1.24.954 1.621 1.717a4.187 4.187 0 0 1-.19 4.101c-1.24 1.907-3.72 2.575-5.723 1.335-16.881-10.491-22.031-32.713-11.54-49.498C-45.588-2.67-37.577-8.297-28.23-10.491c2.67-.668 5.436-.954 8.202-.954 6.676 0 13.257 1.908 18.979 5.437C.954-4.769 1.526-2.003 0 0" style="fill:#fff;fill-opacity:1;fill-rule:nonzero;stroke:none" transform="translate(82.746 37.973)"/><path d="M0 0a4.979 4.979 0 0 1-1.526.572C-2.098.668-2.67.668-3.147.477a4.837 4.837 0 0 1-2.671-1.908 4.97 4.97 0 0 1-.572-1.526c-.095-.572-.095-1.144.095-1.621.096-.572.382-1.049.668-1.526.382-.477.763-.858 1.24-1.144a5.008 5.008 0 0 1 1.526-.573c.572-.095 1.144-.095 1.621.096.572.095 1.049.381 1.526.667.477.382.858.763 1.145 1.24.286.477.476 1.049.572 1.526.095.572.095 1.145-.096 1.622-.095.572-.381 1.049-.667 1.526C.954-.668.477-.286 0 0" style="fill:#fff;fill-opacity:1;fill-rule:nonzero;stroke:none" transform="translate(93.32 47.24)"/></g></svg>