<svg xmlns="http://www.w3.org/2000/svg" xml:space="preserve" style="enable-background:new 0 0 2267.72 1417.32" viewBox="0 0 2267.72 1417.32"><switch><g><path d="M566.54 1163.05c-23.92 0-48-1.86-72.09-5.63-121.46-19-228.26-84.16-300.71-183.47-72.46-99.32-101.9-220.91-82.91-342.37 18.99-121.46 84.15-228.26 183.47-300.71 205.02-149.58 493.51-104.45 643.09 100.57L894 463.08c-132.13-181.1-386.94-220.95-568.05-88.83-87.73 64-145.28 158.34-162.06 265.62-16.78 107.29 9.23 214.69 73.23 302.42 64 87.73 158.34 145.28 265.62 162.06 107.3 16.77 214.69-9.23 302.42-73.23l31.65 43.39c-79.62 58.09-173.56 88.54-270.27 88.54z"/><path d="m726.95 988.5 201.57-.04-94.01 186.26zM368.95 455.98h85.41v470.09h-85.41V455.98zM517.91 588.4h80.78v39.06c0 12.58-1.32 23.17-1.32 23.17h1.32c14.57-28.47 51.64-70.18 119.84-70.18 74.82 0 117.19 39.06 117.19 128.45v217.17H752.3V726.12c0-41.05-10.59-68.86-53.63-68.86-45.02 0-78.13 28.47-90.71 68.86-4.63 13.9-5.96 29.13-5.96 45.02v154.93h-84.09V588.4zM891.33 825.43s37.08 37.08 92.03 37.08c23.84 0 44.36-10.59 44.36-30.46 0-50.32-164.2-43.7-164.2-152.28 0-62.9 56.28-99.31 129.11-99.31 76.14 0 113.22 38.4 113.22 38.4l-31.12 62.24s-31.12-29.13-82.76-29.13c-21.85 0-43.04 9.27-43.04 30.46 0 47.67 164.2 41.71 164.2 150.29 0 56.28-48.99 101.3-129.11 101.3-84.09 0-131.09-49.66-131.09-49.66l38.4-58.93zM1138.28 455.98h83.42v74.82h-83.42v-74.82zm0 132.42h84.09v337.67h-84.09V588.4zM1402.45 580.46c74.15 0 97.33 43.04 97.33 43.04h1.32s-.66-8.61-.66-19.2V455.98h84.09v470.09h-79.45v-27.81c0-12.58 1.32-21.85 1.32-21.85h-1.32s-28.47 57.6-105.93 57.6c-91.37 0-149.63-72.17-149.63-176.78-.01-107.26 63.55-176.77 152.93-176.77zm15.89 282.71c43.7 0 84.75-31.78 84.75-106.6 0-52.3-27.81-103.95-84.09-103.95-46.35 0-84.75 37.74-84.75 104.61.01 64.23 34.44 105.94 84.09 105.94zM1782.49 580.46c97.33 0 149.63 70.84 149.63 160.23 0 9.93-1.99 32.44-1.99 32.44h-233.06c5.3 58.93 50.98 89.38 101.3 89.38 54.29 0 97.33-37.08 97.33-37.08l32.44 60.25s-51.64 48.33-135.73 48.33c-111.89 0-181.41-80.78-181.41-176.78.01-103.94 70.85-176.77 171.49-176.77zm64.88 135.06c-1.32-45.68-29.79-70.18-66.87-70.18-43.04 0-72.83 26.48-80.77 70.18h147.64zM1959.26 588.4h80.77v58.26c0 12.58-1.32 23.84-1.32 23.84h1.32c15.23-48.33 55.62-86.73 107.26-86.73 7.95 0 15.23 1.32 15.23 1.32v82.76s-8.61-1.32-19.86-1.32c-35.75 0-76.14 20.52-92.03 70.84-5.3 16.55-7.28 35.09-7.28 54.95v133.74h-84.08V588.4z"/></g></switch></svg>