<?xml version="1.0" encoding="utf-8"?>
<!-- Generator: Adobe Illustrator 23.0.3, SVG Export Plug-In . SVG Version: 6.00 Build 0)  -->
<svg version="1.1" id="Layer_1" xmlns="http://www.w3.org/2000/svg" xmlns:xlink="http://www.w3.org/1999/xlink" x="0px" y="0px"
	 viewBox="0 0 466 353" style="enable-background:new 0 0 466 353;" xml:space="preserve">
<style type="text/css">
	.st0{opacity:0.25;fill:#59C1A7;enable-background:new    ;}
	.st1{opacity:0.25;fill:#36C3F2;enable-background:new    ;}
	.st2{opacity:0.15;fill:#EF3D55;enable-background:new    ;}
	.st3{opacity:0.15;fill:#6A266D;enable-background:new    ;}
	.st4{fill:#6A266D;}
	.st5{fill:#36C3F2;}
	.st6{fill:#59C1A7;}
	.st7{fill:#EF3D55;}
	.st8{fill:#333332;}
</style>
<title>Iterable-Diamond-FIN</title>
<rect x="219.3" y="118.9" transform="matrix(0.7071 -0.7071 0.7071 0.7071 -23.0724 233.8714)" class="st0" width="102.9" height="51.8"/>
<rect x="244.3" y="20.1" transform="matrix(0.7071 -0.7071 0.7071 0.7071 28.5711 212.0225)" class="st1" width="51.8" height="102.9"/>
<rect x="170.5" y="93.5" transform="matrix(0.7071 -0.7071 0.7071 0.7071 -44.9418 181.2927)" class="st2" width="51.8" height="102.9"/>
<rect x="146.7" y="43.9" transform="matrix(0.7071 -0.7071 0.7071 0.7071 8.6623 160.5283)" class="st3" width="102.9" height="51.8"/>
<circle class="st4" cx="233.4" cy="34.6" r="26.1"/>
<circle class="st5" cx="307.2" cy="108.5" r="26.1"/>
<circle class="st6" cx="233.4" cy="182.2" r="26.1"/>
<ellipse class="st7" cx="159.7" cy="108.3" rx="26.1" ry="26.1"/>
<path class="st8" d="M159.1,286.6h-31.8c-0.6,0-1.1,0.5-1.1,1.1v56c0,0.6,0.5,1.1,1.1,1.1h31.8c0.6,0,1.1-0.5,1.1-1.1v-8.9
	c0-0.6-0.5-1.1-1.1-1.1h-19.4c-1.2,0-2-0.9-2-2l0,0v-9.2c0-1.2,0.9-2,2-2l0,0h17.8c0.6,0,1.1-0.5,1.1-1.1v-8c0-0.6-0.5-1.1-1.1-1.1
	h-17.8c-1.2,0-2-0.9-2-2v-8.5c0-1.2,0.9-2,2-2h19.4c0.6,0,1.1-0.5,1.1-1.1v-8.9C160.2,287.1,159.7,286.6,159.1,286.6
	C159.2,286.6,159.1,286.6,159.1,286.6z"/>
<path class="st8" d="M291.2,344.7c0.4,0,0.7-0.2,0.9-0.5s0.2-0.7,0.1-1l-22.4-56.1c-0.2-0.4-0.6-0.7-1-0.7h-5.7
	c-0.4,0-0.8,0.3-1,0.7l-22.4,56.1c-0.1,0.3-0.1,0.7,0.1,1s0.6,0.5,0.9,0.5h10.2c0.5,0,0.8-0.3,1-0.7l2.8-7.7
	c0.3-0.8,1.1-1.4,1.9-1.4h18.9c0.9,0,1.6,0.6,1.9,1.4l2.7,7.7c0.1,0.4,0.5,0.7,1,0.7H291.2z M272,324.1c-0.4,0.6-1,0.9-1.6,0.9h-8.8
	c-0.7,0-1.3-0.3-1.6-0.9c-0.4-0.5-0.5-1.3-0.3-1.8l4.4-12.2c0.2-0.7,0.7-1.2,1.4-1.4c1.1-0.3,2.1,0.2,2.5,1.3l4.4,12.3
	C272.5,322.9,272.4,323.6,272,324.1L272,324.1z"/>
<path class="st8" d="M402.1,344.7c0.6,0,1.1-0.5,1.1-1.1v-8.9c0-0.6-0.5-1.1-1.1-1.1h-16.5c-1.2,0-2-0.9-2-2v-44
	c0-0.6-0.5-1.1-1.1-1.1h-9.3c-0.6,0-1.1,0.5-1.1,1.1v56c0,0.6,0.5,1.1,1.1,1.1L402.1,344.7L402.1,344.7z"/>
<path class="st8" d="M311.8,344.7h21.9c3.4,0.1,6.8-0.7,9.8-2.3c2.6-1.5,4.7-3.6,6.2-6.1c1.4-2.4,2.1-5.2,2.1-8
	c0.2-6.1-3.3-11.7-8.8-14.4c-0.2-0.1-0.3-0.3-0.3-0.5v-0.3l0.2-0.3c3.3-2.7,5.1-6.8,5-11c0-2.7-0.7-5.3-1.9-7.6
	c-1.4-2.4-3.4-4.4-5.8-5.5c-3-1.5-6.3-2.2-9.7-2.1h-18.7c-0.7,0-1.2,0.5-1.2,1.2v55.9C310.7,344.2,311.2,344.7,311.8,344.7
	L311.8,344.7z M322.2,299.4c0-1,0.8-1.7,1.7-1.7h5c1.9-0.1,3.9,0.5,5.3,1.7c1.1,1,1.7,2.2,1.9,3.7c0.3,2-0.5,4-1.9,5.4
	c-1.5,1.4-3.5,2-5.4,1.9h-4.9c-1,0-1.7-0.8-1.7-1.7V299.4z M322.2,321.6c0-1,0.8-1.7,1.7-1.7h7.7c2-0.1,4.1,0.6,5.6,1.9
	c1.5,1.3,2.2,3,2.2,4.9c0,1.9-0.8,3.8-2.1,5c-1.5,1.5-3.6,2.1-5.7,2H324c-1,0-1.8-0.9-1.8-1.8l0,0L322.2,321.6z"/>
<path class="st8" d="M212.5,324.6c-0.6-1-0.3-2.2,0.7-2.7c1-0.5,1.9-1.2,2.7-1.8c6.4-6.2,7.8-15.9,3.6-23.7c-1.6-2.9-4.1-5.4-7-7.1
	c-3.2-1.8-6.8-2.7-10.4-2.7h-17.7c-0.6,0-1.1,0.5-1.1,1.1l0,0v56.1c0,0.6,0.5,1.1,1.1,1.1l0,0h9.4c0.6,0,1.1-0.5,1.1-1.1l0,0v-16.9
	c0-1.2,0.9-2,2-2h2.7c0.8,0,1.5,0.4,1.8,1.1l9.6,18.4c0.2,0.4,0.6,0.6,1,0.6h10.5c0.4,0,0.7-0.3,0.9-0.6c0.2-0.3,0.2-0.8,0-1.1
	L212.5,324.6z M207.8,311.6c-1.7,1.5-4.1,2.3-6.4,2.2h-4.6c-1.2,0-2-0.9-2-2v-12.1c0-1.2,0.9-2,2-2h4.6c2.3-0.1,4.6,0.8,6.4,2.3
	c3.2,3.1,3.3,8.2,0.2,11.4C207.9,311.5,207.9,311.5,207.8,311.6L207.8,311.6z"/>
<path class="st8" d="M104.9,286.6H68.4c-0.6,0-1.1,0.5-1.1,1.1v8.9c0,0.6,0.5,1.1,1.1,1.1l0,0h10.7c1.2,0,2,0.9,2,2v44
	c0,0.6,0.5,1.1,1.1,1.1l0,0h9.4c0.6,0,1.1-0.5,1.1-1.1l0,0v-44c0-1.2,0.9-2,2-2H105c0.6,0,1.1-0.5,1.1-1.1l0,0v-8.9
	C106,287.1,105.6,286.6,104.9,286.6L104.9,286.6z"/>
<path class="st8" d="M456.3,333.8h-19.4c-1.2,0-2-0.9-2-2v-9.2c0-1.2,0.9-2,2-2h17.8c0.6,0,1.1-0.5,1.1-1.1v-8.1
	c0-0.6-0.5-1.1-1.1-1.1h-17.8c-1.2,0-2-0.9-2-2v-8.5c0-1.2,0.9-2,2-2h19.4c0.6,0,1.1-0.5,1.1-1.1v-8.9c0-0.6-0.5-1.1-1.1-1.1h-31.9
	c-0.6,0-1.1,0.5-1.1,1.1v56c0,0.6,0.5,1.1,1.1,1.1h31.9c0.6,0,1.1-0.5,1.1-1.1v-8.9C457.4,334.3,456.9,333.8,456.3,333.8
	L456.3,333.8z"/>
<path class="st8" d="M45.4,333.8h-9.2c-1.2,0-2-0.9-2-2l0,0v-32c0-1.2,0.9-2,2-2h9.3c0.6,0,1.1-0.5,1.1-1.1l0,0v-8.9
	c0-0.6-0.5-1.1-1.1-1.1l0,0H10.9c-0.6,0-1.1,0.5-1.1,1.1l0,0v8.9c0,0.6,0.5,1.1,1.1,1.1l0,0h9.8c1.2,0,2,0.9,2,2l0,0v32.1
	c0,1.1-1,1.9-2,1.9h-9.8c-0.6,0-1.1,0.5-1.1,1.1l0,0v8.9c0,0.6,0.5,1.1,1.1,1.1l0,0h12.6c0.1,0,0.2,0.1,0.3,0.1H33
	c0.1,0,0.2,0,0.3-0.1h12.1c0.6,0,1.1-0.5,1.1-1.1l0,0v-8.9C46.4,334.3,46,333.8,45.4,333.8L45.4,333.8z"/>
</svg>
