<svg xmlns="http://www.w3.org/2000/svg" style="enable-background:new 0 0 539.5 378.09" viewBox="0 0 539.5 378.09" xml:space="preserve"><path d="M238.88 238.08c0-5.37-.07-31.03 0-46.04.02-2.98.33-6 .74-8.95 1.31-9.48 6.21-14.17 15.73-15.04 3.82-.35 7.68-.4 11.59-.58V153.4c-9.14.17-18.14-.79-26.96 1.66-10.07 2.8-16.63 9.07-18.56 19.55-.67 3.58-1.03 7.26-1.05 10.91v52.58h18.51zm-28.76-.04v-61.85c-.47-11-8.06-19.18-18.81-21.32-4.97-.99-10.12-1.29-15.21-1.43-7.86-.23-15.73-.06-24-.06v-27h-18.44V238h18.66v-69.88c9.09 0 17.86-.27 26.61.1 5.41.23 9.56 3.34 11.14 8.62 1.16 3.87 1.81 8.04 1.87 12.09.21 15.12.09 47.75.09 49.13h18.09zM111.54 223.47c-9.51-.88-14.41-5.56-15.73-15.04-.41-2.96-.72-5.97-.74-8.96-.02-5.91-.01-18.39 0-31.35h27.6v-14.37H95.1c.01-14.54.03-26.72-.02-27H76.57c-.06.99-.11 62.72 0 79.27.03 3.64.39 7.32 1.05 10.91 1.93 10.48 8.5 16.75 18.57 19.55 8.81 2.45 17.81 1.49 26.96 1.66v-14.08c-3.93-.2-7.78-.24-11.61-.59M371.42 153.43h17.51c.96 0 2.32 1.46 2.72 2.51 7.41 19.25 24.08 63.11 24.91 65.09 2.09-4.19 17.68-44.88 25.15-64.94.8-2.14 1.8-2.75 4.06-2.75h16.08c-.32 1.08-21.57 52.88-31.87 78.01-2.1 5.13-5.53 7.9-11.15 7.72-1.23-.04-2.45-.05-3.67 0-5.9.25-9.48-2.64-11.67-8.01-8.11-19.8-29.4-71.14-32.07-77.63M296.68 265.74c5.66 0 10.86-.1 16.05.05 2.18.07 3.24-.55 4.19-2.66 15.81-35.27 31.73-70.49 47.62-105.72.52-1.14.93-2.31 1.51-3.77-5.84 0-11.17.08-16.49-.05-1.85-.04-2.72.6-3.44 2.28-4.17 9.66-8.45 19.27-12.7 28.9-4.93 11.13-9.86 22.26-15 33.85-1.35-3.18-2.53-5.9-3.67-8.64-7.47-17.88-14.92-35.77-22.45-53.62-.44-1.05-1.53-2.56-2.37-2.59-5.85-.22-11.71-.12-17.87-.12.33.94.5 1.56.76 2.14 11.33 25.38 22.58 50.8 34.11 76.1 1.93 4.24 2.46 7.63.08 11.96-3.81 6.95-6.82 14.33-10.33 21.89"/><path d="m461.84 144.19-37.4-16.95-33.38-15.15c-1.88-.85-4.01.52-4.01 2.59v9.67c0 1.48-1.14 2.71-2.61 2.83l-96.98 7.77-115.5 9.25h289.88z" style="fill:#ff5000"/><path d="M440.96 235.29c0-.68.17-1.32.51-1.92s.81-1.07 1.41-1.41a3.853 3.853 0 0 1 3.85-.01c.6.34 1.07.81 1.41 1.41.34.6.52 1.24.52 1.93 0 .67-.17 1.3-.5 1.89a3.817 3.817 0 0 1-3.35 1.95c-.71 0-1.36-.18-1.95-.53-.6-.35-1.06-.82-1.39-1.41s-.51-1.22-.51-1.9zm.63 0c0 .58.14 1.12.43 1.61.29.5.68.89 1.18 1.17s1.03.43 1.61.43c.58 0 1.12-.15 1.62-.44s.89-.68 1.17-1.18c.28-.49.43-1.03.43-1.6 0-.57-.14-1.11-.43-1.61s-.68-.89-1.18-1.18-1.03-.43-1.6-.43c-.57 0-1.11.14-1.6.42-.49.28-.89.67-1.18 1.17s-.45 1.06-.45 1.64zm4.77-.91c0 .58-.26.98-.78 1.19l1.21 2.03h-1.08l-.98-1.77h-.46v1.77h-.97v-4.62h1.34c.59 0 1.03.12 1.3.35.28.24.42.59.42 1.05zm-2.09.71h.35c.25 0 .44-.06.57-.18.13-.12.19-.29.19-.51 0-.25-.06-.42-.19-.51s-.32-.15-.59-.15h-.34v1.35z"/></svg>